<?xml version="1.0"?>
<svg width="24" height="24" xmlns="http://www.w3.org/2000/svg" xmlns:svg="http://www.w3.org/2000/svg" xmlns:xlink="http://www.w3.org/1999/xlink">
 <g class="layer">
  <title>Layer 1</title>
  <path d="m9.15,5.41c1.27,-2.27 1.9,-3.41 2.85,-3.41c0.95,0 1.58,1.14 2.85,3.41l0.32,0.59c0.36,0.64 0.54,0.96 0.83,1.18c0.28,0.21 0.63,0.29 1.32,0.45l0.64,0.14c2.46,0.56 3.69,0.84 3.98,1.78c0.3,0.94 -0.54,1.92 -2.22,3.88l-0.43,0.51c-0.48,0.55 -0.72,0.83 -0.83,1.18c-0.1,0.34 -0.07,0.71 0,1.46l0.07,0.67c0.25,2.62 0.38,3.93 -0.39,4.51c-0.76,0.58 -1.91,0.05 -4.22,-1.01l-0.59,-0.27c-0.66,-0.3 -0.98,-0.46 -1.33,-0.46c-0.35,0 -0.67,0.16 -1.33,0.46l-0.59,0.27c-2.31,1.06 -3.46,1.59 -4.22,1.01c-0.77,-0.58 -0.64,-1.89 -0.39,-4.51l0.06,-0.67c0.08,-0.75 0.11,-1.12 0.01,-1.46c-0.11,-0.35 -0.35,-0.63 -0.83,-1.18l-0.43,-0.51c-1.68,-1.96 -2.52,-2.94 -2.22,-3.88c0.29,-0.94 1.52,-1.22 3.98,-1.78l0.64,-0.14c0.69,-0.16 1.04,-0.24 1.32,-0.45c0.29,-0.22 0.47,-0.54 0.83,-1.18l0.32,-0.59z" fill="#ffffaa" id="svg_1"/>
  <use id="svg_5" transform="matrix(1 0 0 1 0 0) matrix(85.3323 0 0 85.3323 0 0)" xlink:href="#svg_4"/>
 </g>
 <defs>
  <symbol id="svg_4" viewBox="0 0 51.04 49.47" xmlns="http://www.w3.org/2000/svg">
   <defs>
    <style>.cls-1,.cls-2,.cls-3{fill:none;}.cls-2,.cls-3{stroke:#fff;stroke-miterlimit:10;}.cls-2{stroke-linecap:round;stroke-width:5px;}.cls-3{stroke-width:2px;}</style>
   </defs>
   <g data-name="Calque 2" id="svg_2">
    <g data-name="Calque 1" id="svg_3">
     <polyline class="cls-1" points="6.8 0 51.04 0 51.04 49.47 0 49.47 0 0 6.8 0"/>
     <line class="cls-2" x1="31.92" x2="41.34" y1="30.64" y2="40.61"/>
     <path class="cls-3" d="m33.77,20.34a11.49,11.49 0 1 1 -11.48,-11.48a11.46,11.46 0 0 1 11.48,11.48z"/>
    </g>
   </g>
  </symbol>
 </defs>
</svg>